# xmcd
#
# Track frame offsets:
#	150
#	11785
#	22337
#	36823
#	51228
#	65122
#	77566
#	90854
#	102979
#	118305
#	133167
#	146797
#	161427
#	175834
#	190009
#	202561
#	214355
#
# Disc length: 2997 seconds
#
# Revision: 4
# Processed by: cddbd v1.5.2PL0 Copyright (c) Steve Scherf et al.
# Submitted via: EasyCDDAExtractor 11.1.0.1
#
DISCID=f20bb311
DTITLE=Blind Willie McTell - Statesboro Blues - When The Sun Goes Down
DYEAR=2003
DGENRE=Blues
TTITLE0=Statesboro Blues (1928)
TTITLE1=Mr McTell Got The Blues (1927)
TTITLE2=Writin' Paper Blues (1927)
TTITLE3=Stole Rider Blues (1927)
TTITLE4=Mama, 'Taint Long Fo' Day (1927)
TTITLE5=Three Women Blues (1928)
TTITLE6=Dark Night Blues (1928)
TTITLE7=Loving Talking Blues (1928)
TTITLE8=Drive Away Blues (1928)
TTITLE9=Love Changing Blues (1928)
TTITLE10=Rollin' Mama Blues (1032)
TTITLE11=Lonesome Day Blues (1932)
TTITLE12=Mama, Let Me Scoop For You (1932)
TTITLE13=Searching The Desert For The Blues (1932)
TTITLE14=Teasing Brown (1929)
TTITLE15=This Is Not The Stove To Brown Your Bread (1929)
TTITLE16=Mr McTell Got The Blues (alternate take (1927)
EXTD=YEAR: 1932
EXTT0=
EXTT1=
EXTT2=
EXTT3=
EXTT4=
EXTT5=
EXTT6=
EXTT7=
EXTT8=
EXTT9=
EXTT10=
EXTT11=
EXTT12=
EXTT13=
EXTT14=
EXTT15=
EXTT16=
PLAYORDER=
